<svg id="Layer_1" data-name="Layer 1" xmlns="http://www.w3.org/2000/svg" viewBox="0 0 783.69 595.05"><defs><style>.cls-1{fill:#fff;}</style></defs><path class="cls-1" d="M420.32,481.87c1-12.62,3.51-24.88,9.38-36.23,8.95-17.28,21.58-31,40.34-37.31,9-3.06,18.88-4.77,28.35-.95,9.82,4,14.62,11.17,13.39,23.16S504,452.08,492,456.34a26.68,26.68,0,0,1-12.93,1.21c-11.91-1.77-13-13.54-10.14-21.4,2.57-7.14,8.62-10.78,14.57-10.32,2,.16,3,.39,2.33,2.9s-1,5.23.87,7.52c1,1.26,2.13,2.69,4.06,2.25a4.81,4.81,0,0,0,3.63-3.63c1.67-5.63-1-14.07-5.37-16.81-5.31-3.33-12.53-2.28-17.51,2.63-10.11,10-14.31,22.85-17.34,36.16A100.21,100.21,0,0,0,452,484.16a45.24,45.24,0,0,0,2.61,12.44c2.24,6.55,9.64,9.14,18.2,6.57a39.14,39.14,0,0,0,13-6.82,96.09,96.09,0,0,0,30.09-39.73c9.78-23.63,27.39-40.07,51.57-48.73a54.18,54.18,0,0,1,32.39-1.15c2.73.71,4.27,1.59,3.18,5.09-4.41,14.17-8.5,28.45-12.71,42.68-3.66,12.36-7.37,24.7-11,37.08-.76,2.63-.55,5.5,1.69,7.27,2.41,1.91,5.36,1.33,7.89-.06,5-2.78,8.55-6.57,10.24-12.47,5.93-20.74,12.36-41.35,18.5-62,5.39-18.15,10.5-36.38,16-54.5,3.07-10.14,6.59-20.15,9.13-30.46.71-2.85,2.4-4.23,5.69-4.08,6.39.28,12.8.27,19.19,0,3.86-.16,4.68,1.68,3.91,4.77-1,4.12-2.31,8.18-3.53,12.25q-9.68,32.1-19.38,64.19c-.37,1.24-1,2.43-.14,4.12,4.87-3.63,8.32-8.73,13.49-11.9,8-4.88,18.3-4.12,22.62,2.36a22.57,22.57,0,0,1,3.56,16c-3,19.75-12.12,35.34-30.94,44a3.81,3.81,0,0,0-2.44,3.81c-.28,8.58,1.64,16.53,6.79,23.53,2.54,3.45,7.21,4.86,10.9,2.74,7.62-4.4,12.82-9.83,13.38-19.91,1.68-30.43,15-54.63,42-69.85a46.55,46.55,0,0,1,32.31-4.92c6.34,1.24,11.42,7.49,12.82,14.61,1.74,8.8-.39,16.94-4,24.69-7.57,16.27-19.6,27.53-37.48,31.74-3.72.88-7.51.49-11.27.51-1.8,0-3.38.2-3.38,2.5,0,5.86-.62,11.78,2.1,17.36,2.23,4.6,5.61,6.74,10.81,6.94,9.59.38,16.85-4.37,24-9.78,9.7-7.36,16.43-17.19,23-27.16,1.37-2.07,2.73-5.73,5.7-3.8,2.6,1.68.2,4.6-.91,6.83a115.47,115.47,0,0,1-20.29,28.75c-11.9,12.4-25.7,21.72-44,21.61-13.15-.09-23.88-7.63-28.53-20-.42-1.12.17-3-1.66-3.14-1.3-.08-1.57,1.48-2.26,2.36-6.09,7.78-12.45,15.3-22.09,18.86-15.09,5.57-20.81,1-26.64-11a57.94,57.94,0,0,1-4-12.58A85,85,0,0,1,630,482c-3,4.52-3.56,8.39-4.74,11.94-2.67,8.05-5,16.23-7.21,24.43-.85,3.17-2.52,4.12-5.63,4-6.39-.18-12.8-.21-19.19,0-4.11.12-4.75-1.44-3.62-5.07.8-2.57,2.88-4.86,2.06-8.4-3.19,2.58-6.08,5.06-9.1,7.36-7.4,5.61-21.42,7.2-26.75,2.34-2.51-2.29-4.67-4.5-5.18-8-.43-2.86-1.45-4-4-1.61a53.61,53.61,0,0,1-18.84,11.22,21.76,21.76,0,0,1-15.8,0c-6.09-2.57-8-8.26-8.47-14.39-.28-4.06,0-8.15,0-12.15-2.24-.6-2.8,1-3.76,2C491.87,504,483.9,512.22,473,516.74c-9.91,4.09-20.08,6.58-30.52,2.85-12.44-4.43-18.71-14.17-21-26.79C421.07,489.2,422.58,485.35,420.32,481.87ZM533.07,490c.5,2.5-.26,6.92,5,7.71,4.65.71,12.19-4,13.56-8.54q9.38-30.94,18.56-62c.53-1.81,2.55-4.39.12-5.8s-5.14-.59-7.45.95a30.67,30.67,0,0,0-2.58,2.26c-8.46,7.13-12.35,17.17-16.88,26.74C537.75,463.22,533.73,475.62,533.07,490Zm217.39-66.87v-2.95c-.28-5.89-2.9-7.38-7.83-4.15-4.74,3.11-8,7.64-10.73,12.55-5.58,10.18-10.32,20.7-12.34,32.27-.39,2.27-3.06,4.77-.35,6.63,2.33,1.61,5.11.74,7.82-.65,5.64-2.88,9.17-7.58,12.4-12.71a71.72,71.72,0,0,0,11.05-31Zm-89.74,9.28c.19-2.07-1-3.34-2.55-4.41a3.9,3.9,0,0,0-5,.37,26,26,0,0,0-5.29,5.75c-5.75,8.61-9.46,18.2-13.34,27.71-.51,1.26-1.92,2.74-.29,3.95,1.25.93,2.82.28,4.22-.27,11.15-4.43,21.68-21,22.27-33.12Z" transform="translate(0 0.02)"/><path class="cls-1" d="M420.32,481.87c2.26,3.48.77,7.33,1.1,11q-5.51,6.87-11,13.76A54.29,54.29,0,0,1,399,517.37c-6.63,4.67-14.07,5.69-21.43,2.22-8.62-4.06-10.77-12.22-11.58-20.85-.2-2.09,0-4.22,0-6.67-3,.59-4,2.75-5.37,4.4-10.39,12.2-22.77,21.22-38.92,23.95-19.39,3.28-32.78-6.35-37.51-25.24a10.55,10.55,0,0,0-.39-1.92c-.52-1.1,0-2.93-1.7-3.21-1.34-.22-1.79,1.28-2.46,2.11-5.83,7.13-12,13.86-19.84,18.92-11.14,7.24-22.95,11.86-36.61,9.24s-20.51-12.21-23.58-24.76-1-25.06,2.43-37.34c.45-1.62,2.32-3.61.31-4.82-1.68-1-3.8.38-5.44,1.44s-2.17,3.15-2.79,5c-5.43,16.43-12.33,32.14-23.66,45.48-9.15,10.79-20.14,17.48-35.1,15.9-8.93-.94-13.42-4.22-15.6-12.88-.26-1,.24-2.6-1.39-2.72-1.36-.1-1.69,1.32-2.34,2.23a63.79,63.79,0,0,1-6.9,8.31c-5.86,5.72-12.77,6.56-20,3.84-7-2.62-8.48-8.81-8.9-15.58-.76-12.33,3.86-23.51,7.27-34.9,5.88-19.62,12.29-39.08,18.29-58.66,1.21-3.93,3.12-5.66,7.36-5.39,5.22.33,10.49.08,15.74.08,5.86,0,6.16.36,4.49,5.8-3.74,12.21-7.53,24.41-11.28,36.62q-6.12,20-12.18,39.95a25,25,0,0,0-.69,8.3c0,1.35.38,2.75,1.76,3.27,1.66.62,2.79-.51,3.71-1.72a47.89,47.89,0,0,0,8.19-15q10.81-36.25,21.35-72.59c1-3.46,2.55-4.81,6.18-4.66,6.22.26,12.47.17,18.7,0,3.88-.08,4.86,1.16,3.65,5-8.13,25.94-16.08,51.94-24.09,77.92a36.12,36.12,0,0,0-1.76,10.61c0,5.63,3.74,8,8.94,5.79,5.37-2.23,9.09-6.51,12.27-11a109.8,109.8,0,0,0,16-34.63c.73-2.69.23-4-2.09-5.61-7-4.86-11.16-17-9.07-25.11a5,5,0,0,1,2.43-2.9q11.56-7.9,23.11-15.84c.92-.64,1.8-1.74,3-.9.93.63.48,1.79.46,2.74-.11,4.58-.52,9.17.93,13.66a13.86,13.86,0,0,0,3.52,5.82c4.38,4.31,6.4,4.35,10.33-.33,10.06-12,21.82-21.27,37.74-23.91,4-.67,8.06-1.5,12.19-1.17,16.42,1.34,19.78,13.58,18.59,25.34-2.16,21.15-20.59,41.77-41.32,46.31-3.63.8-7.51.65-11.26.62-2.91,0-4.2,1-4.2,4A48.11,48.11,0,0,0,230.2,496c2,6.63,5.25,9.09,12.17,9.12a30.28,30.28,0,0,0,17.53-5.66,90.67,90.67,0,0,0,19.87-18.19A21,21,0,0,0,284,471c4.39-26.07,17.27-46.44,40.67-59.42a49.32,49.32,0,0,1,26.59-5.83c14.32.69,20.1,10.61,18.81,24.07-2.14,22.49-19.4,41.9-41.21,47.48-3.87,1-7.83.74-11.76.64-2.76-.08-3.83,1.09-3.85,3.76,0,5.28.24,10.49,2.14,15.5,2,5.25,5.58,7.76,11.21,7.83,8.08.1,15-3,21.31-7.73a102.24,102.24,0,0,0,19.37-19.45c3.57-4.55,4.24-10.22,5.92-15.49,3.87-12.18,7.51-24.44,11.44-36.61,1.24-3.83.13-5.08-3.74-5-1.93.06-4.93,1.23-5.56-1.56-.81-3.6-1.25-7.57.37-11.06.84-1.81,3.3-.89,5-.91,11.63-.11,9,1.06,12.5-9.48,4-12.12,7.51-24.42,11.11-36.67.88-3,2.4-4.24,5.62-4.11,6.23.23,12.47.14,18.7,0,3.3,0,4.74.3,3.41,4.43-4.36,13.57-8.15,27.32-12.26,41-1,3.33-.4,5,3.48,4.8,3.43-.19,6.89.07,10.33-.07,3.13-.13,4.32,1,4.4,4.28.21,9.45.34,9.45-9,9.42-3.45,0-6.9.16-10.34,0-2.95-.17-4.43,1-5.28,3.82-5.67,19-11.48,37.92-17.21,56.89a39.28,39.28,0,0,0-1.4,13.64c.31,5.29,3.48,7.3,8.34,5.19,4.71-2,7.41-6.35,10.63-10C416.07,487.67,418.12,484.71,420.32,481.87Zm-72.7-60.43c.05-2.56-.29-5.25-2.86-6.72-2.41-1.37-4.57.35-6.27,1.66a30,30,0,0,0-6.13,6.3c-8.86,12.48-13.8,26.62-17.22,41.41-.87,3.76,1,4.33,3.85,4.19,4.79-.23,8.32-3,11.26-6.34C340.46,450.44,345.94,436.82,347.62,421.44Zm-85.27,1.44v-2.94c-.3-5.66-2.69-7-7.62-4.26a17.31,17.31,0,0,0-5.1,4.54c-10.43,13.11-15.64,28.5-19.33,44.56-.57,2.5.55,3.27,2.71,3.48,4.31.4,7.77-1.65,10.55-4.42C254.84,452.55,260.82,438.7,262.35,422.88Z" transform="translate(0 0.02)"/><path class="cls-1" d="M415.8,244.39c.52,2.89-1.93,4.35-3.11,6.4-8.92,15.45-20.24,28.77-35,39-1.31.91-2.36,1.73-2.27,3.44-8.21,2.65-16.4,5.37-24.64,7.92A476,476,0,0,1,300.92,314a301.21,301.21,0,0,1-40.8,5.41c-12.39.67-24.8,1.08-36.88-3.56-19-7.32-33.7-26.39-33.69-46.61,0-18.93,8.54-33.94,23.73-45.21,2.66-2,4.37-.85,6.34,1.1,1.77,1.75,1.48,4.76,3.93,6h0a17.73,17.73,0,0,0,2.42,9.6c3.11,10.84,9.65,16.34,18.46,14.56,7.54-1.51,13.27-6.25,17.74-12.47a3,3,0,0,0,1.9-2.12,8.06,8.06,0,0,0,4-4.84h0c4-3,7.12-6.87,10.3-10.68l.27,0,.23-.16c2.18-.73,4.52-1.1,6.18-2.92l5.15.13,14.2,9.77c1.25,1.67,2.47,3.38,4.7,3.86l1.23,1h-.06l1,1,1.56,1.1a24.64,24.64,0,0,0,27.63,4.51,73,73,0,0,0,14.94-10.17c14.66-12.18,24.86-13.34,38.48-3.84C401.19,234.56,408.16,240,415.8,244.39ZM347.63,290a25.26,25.26,0,0,0-4.08,0q-13.67,2.61-27.29,5.35a303.08,303.08,0,0,1-49,5.28c-14.51.51-29,0-43.26-3.6-.93-.23-2.11-.56-2.62.51s.64,1.6,1.37,2.22c4.51,3.82,10.21,5.32,15.59,6.67,15.95,4,32.09,2.15,48.08-.21a309.77,309.77,0,0,0,48.45-11.42C338.91,293.52,343.56,293.56,347.63,290Z" transform="translate(0 0.02)"/><path class="cls-1" d="M223.55,231.08c-2.45-1.23-2.16-4.24-3.93-6-2-2-3.68-3.07-6.34-1.1-15.19,11.27-23.72,26.28-23.73,45.21,0,20.22,14.64,39.29,33.69,46.61,12.08,4.64,24.49,4.23,36.88,3.56a301.21,301.21,0,0,0,40.8-5.41,476,476,0,0,0,49.86-12.85c8.24-2.55,16.43-5.27,24.64-7.92l1.91-.4,1.31-.64a.82.82,0,0,0,.71-.15l1.36-.73,2.51-.37a1.72,1.72,0,0,0,2-.84l7.84-2.45,1.07-.53a1.25,1.25,0,0,0,.84-.21,5.62,5.62,0,0,0,4.37-1.55L413.78,281a2,2,0,0,0,2.2-.69.85.85,0,0,0,.72-.16,1.8,1.8,0,0,0,2.06-.79l7.81-2.16c1.13.12,2.25.19,3-.9l4.81-1.21a1.7,1.7,0,0,0,2.06-.73l1.94-.37a1.77,1.77,0,0,0,2.11-.64,1.05,1.05,0,0,0,.81-.15,1.78,1.78,0,0,0,2.07-.67l2.87-.45,1.33-.56,7.49-1.34c1.15.22,2.27.31,3-.85l7.79-1.23a1.59,1.59,0,0,0,2.08-.53l1.93-.25c2,.08,4.1.49,5.94-.81l2.87-.24c1.75.27,3.5.55,5-.72l7.82-.31a13,13,0,0,0,5.88-.19h7.93a6,6,0,0,0,3.93.21l6.81.35c1.2,1.17,2.63.85,4.05.68l1.89.19c1.82,1.35,3.92.9,5.94.93a23.16,23.16,0,0,0,8.32,1.38,2,2,0,0,0,2.5,1.33l.09,0,5.6,1.35,1.24.57,4.69,1.39,1.19.53,10.72,4.34a5.42,5.42,0,0,0,4,2h0a.83.83,0,0,0,.93.71l.15,0c13.45,7.42,25.15,16.69,31.8,31,11.57,24.88,4.45,54.15-21.23,66.37-21,10-48,4.37-60.83-12.54-9-12-9.77-26.29-1.9-38.56,2.81-4.38,6.76-7.31,12.77-9.82-6.41,7.41-10.88,14.31-11.14,23.15-.44,15.05,8.86,27.64,23.58,30.87,13.18,2.89,26.11,1.5,36.91-7.08,15.3-12.15,17.27-32.85,5.56-48.93-12.2-16.74-29.51-25.06-49-29.29-21.25-4.6-42.6-3.57-64-.7-29.87,4-58.48,12.8-87.18,21.42-32,9.62-64.18,18.8-97.62,21.8-21,1.88-42.12,3.44-62.75-4.09C189,312.42,171.67,276.1,184,243c.15-.42.63-.72,1-1.08,3.91-.78,3.46-3.71,3.22-6.54a.29.29,0,0,1,0-.4.41.41,0,0,1,.11-.07c4.27.16,2.82-3,3-5.16a.72.72,0,0,1,.33-.71c3.4-.07,3.61-2.49,3.67-5h3c3.35,5.77,7.26-1.59,11.12.41,1.38.71,1.64-2.25,1.69-3.83,0-1.82.62-3.22,2.68-3.39.92-.08,2.09-.42,2.62.65.78,1.57-2.63.81-1.64,2.67,6.14-.84,7.09-.1,8.17,6.28C223.07,228.24,223.3,229.66,223.55,231.08Z" transform="translate(0 0.02)"/><path class="cls-1" d="M458,116.55a11.93,11.93,0,0,0-4.78,3.15,2.73,2.73,0,0,0-2.95,2.49,2.17,2.17,0,0,0,0,.51c-.72.93-1.45,1.86-2.17,2.8-4.32,2.09-6.58,6-8.68,10h0a4.38,4.38,0,0,0-4.05,3.8l-2.69,1.33a1.69,1.69,0,0,0-2.24,1.6l-1.72.34c-2.29-.26-4.26.11-5.19,2.58-3.94.73-7.72-.41-11.55-1a1.7,1.7,0,0,0-1.75-1.63,1.93,1.93,0,0,0-.53.11l-3.78-.38c-4.31-2.27-8.51-4.75-12.93-6.76-13-5.92-20-7.34-33.41,4.12-6.46,5.55-11.58,12.56-18.83,17.17-6.31,4-12.67,8.46-20.76,7s-14.71-6-21.19-10.76c-8.63-6.39-16.62-13.74-26.92-17.63-3-1.12-5.28-1.1-7.5,1.38-4.24,4.74-8.44,9.4-11.13,15.37-2.79,6.18-4.74,12.65-7.22,19.14-1.06-1.44,0-3.32-1.59-4.23V155.24c1.25-.93,1.26-1.91.13-3,.93-13.24,6.53-23.47,18.53-29.7,7.36-2.7,14.73-5.39,22.08-8.14.34-.13.49-.79.73-1.21l.95-.4,4.88-.12c3.53.94,6.55.21,8.9-2.71l9.83-1.12c2.66,1.56,4.55.67,5.93-1.85l1.93-.11c1.32,1.45,1.71.48,2-.76l6.86-.28c4.42,2.24,7.49-.8,10.85-2.75l10.82-1.16c2.66,1.58,4.56.73,5.91-1.87,3.51-1.32,7.18-1.06,10.81-1.09,2.42,2,4.21.65,5.93-1.1h1.7c1.46.2,2.91.41,3.22-1.64l3.92-.15c1.21,1.44,1.66.52,2-.66l4.91-.29c4.4,2.25,7.68,0,10.84-2.71l7.85-.28a12.39,12.39,0,0,0,11.84-2.78l9.84-1c5.64,1.29,10.82-.1,15.77-2.76l3.94-.18c8.47,1.06,16.48-1.41,24.57-3.21l3.74-.06c11.61-.18,23.23-1.83,34.85,0h1.72a7.59,7.59,0,0,0,6.13,2l1.75.29c.24,1.16.51,2.26,2,1l1.92.3c2.15,2.08,4.53,4.24,7.17,6.43s5.28,4.17,7.76,5.91a11.12,11.12,0,0,0,.45,1.38,10.84,10.84,0,0,0,.64,1.33,5.22,5.22,0,0,1,1,3.17,5,5,0,0,1-.87,2.68c1.61-.59,3.11-.2,3.63.71a1.84,1.84,0,0,1,.16,1.34,14.7,14.7,0,0,0,2.33,7.73,5.85,5.85,0,0,1,1.2,2.4,5.38,5.38,0,0,1,.08,2,35.41,35.41,0,0,0,0,16.63c0,1.29-.11,2.59-.17,3.89a3,3,0,0,0,.12-1.65,3.73,3.73,0,0,0-2.44-2.45,3.28,3.28,0,0,0,1.22-2.44c-.06-1.59-1.81-1.72-2.83-4.14-.6-1.41-.33-2.15-1.26-3.49a6.84,6.84,0,0,0-1.44-1.5c0-.57-.07-1.13-.11-1.7.22-1.47.42-2.94-1.66-3.23a3.26,3.26,0,0,1-.16-.88,1.76,1.76,0,0,0-1.36-2.08,1.26,1.26,0,0,0-.27,0c.11-2.84-2.95-4.07-3.37-6.64,0-2.52-1.46-3.69-3.72-4.17h0c-.21-1.28-.56-2.62-2.15-2.47s-1.81,1.43-1.69,2.78c0,.58-.07,1.16-.1,1.74-1.55,1.2-1.81,2.9-2,4.72-.8,6.06-1.36,12.19-4,17.86v.05c-4.32,3.81-9.22,5.86-15.08,4.95l-5.7-.87-3.72-1.26c-.25-2.34-1.84-2.89-3.86-2.84l-2-1.12c-.51-2.23-1.7-3.68-4.18-3.64l-1.78-1.21-1-.85h-.46l-.45-.08c-.19-1.84-1.12-2.89-3.07-2.81l-6.7-4.19C467.51,113.11,462.07,112.73,458,116.55Zm-14.62,3.15a1.81,1.81,0,0,0,1.93-1.69c0-.1,0-.21,0-.31,1.33-2.85,4.89-3.76,6-6.85a12.14,12.14,0,0,0,3.18-1.21c6.63-5,13.11-3,19.19.74,5.24,3.22,9.59,7.71,14.48,11.48,7,5.4,6.66,5.83,12.7,0a2.64,2.64,0,0,1,.74-.63c5.18-2,4.45-5.74,2.7-9.64-.88-2-1-3.53.35-5.45a7.75,7.75,0,0,0-2-10.78,8,8,0,0,0-2.5-1.13,35.66,35.66,0,0,0-9.2-1.06c-10.42.49-20.88.91-31.22,2.2-3.42.43-7.24-.52-10.42,1.67l-9.79,1c-1.12,0-2.29-.23-3,1-2.72.21-5.53-.53-8.16.65-5.87,2.63-12.11,3.07-18.41,3.26-13.75,1.34-27.19,4.42-40.67,7.26-1.72.36-3.48,2.15-2.18,4.12,2.53,3.85,4.6,8.14,10.44,8.52a37,37,0,0,1,11.29,2.79c6.54,2.64,12,7,18.38,9.89,10.5,4.69,21.54,3.63,29.29-6C438.45,126,441.93,123.6,443.35,119.7Z" transform="translate(0 0.02)"/><path class="cls-1" d="M415.8,244.39c-7.64-4.43-14.61-9.83-21.84-14.87-13.62-9.5-23.82-8.34-38.48,3.84a73,73,0,0,1-14.94,10.17A24.64,24.64,0,0,1,312.91,239c2.36,0,5.06-2.27,6.91,1.13.12.22,1.19.07,1.76-.11,4-1.23,4.38-4.14,1-7.23-3.75-3.43-4.87-8.51-2-11.49,6-6.17,3.17-13.54,3.2-20.5,0-1.22-.9-2.43.26-3.57a2.07,2.07,0,0,1,2.24-.56c1.54.59,1.74,1.71,1.15,3.18-.38,1-.38,2,1,2.25,1,.19,1.48-.54,1.59-1.42.69-5.53,4.25-6.68,9.12-6.28,1.55.12,3.16-.58,4.75-.9a2.73,2.73,0,0,1-2.25,2.82c-5,.88-4.29,4.25-4.29,8.12,0,8.7,5.4,14.7,9.42,21.45,1.11,1.87,3.3,3,4.33,1.55,2.31-3.23,6.75-3.73,8.52-7.36,6.88-4.75,14.65-5.42,22.66-5,3.42.13,6.13,1.94,8.92,3.64,4.3,2.61,7.81,6.41,12.59,8.28,3.62,4.67,8.88,7.07,13.8,9.93.58,2.13,2.23,2.61,4.14,2.65l3.85.27a2,2,0,0,0,2,.84h2.92a2,2,0,0,0,2-.85c3.27-.71,6.82-.83,8.81-4.2a1.76,1.76,0,0,0,1.86-.82c2.69-2.08,5.91-3.74,6.16-7.76l3.93-3.95a2.94,2.94,0,0,0,2.85-3v0c3.83-5.77,9.66-9.93,13.32-15.65,2.07-3.24,6.68-2.82,7.53-6.8a51.9,51.9,0,0,1,14.6-1.14c3.37,2.26,7.69,1.77,11.1,4.49,8.09,6.43,19.6,9.55,28.3-3.53,1.29-1,2.44-2.39,3.89-2.84,5.66-1.76,7.53-5.36,6-11,.58.26,1.44.35,1.69.79,2.13,3.74,4.46,6.59,9.59,5.6,1.69-.32,4.24,1.59,3.31,3.9-2.9,7.23,3.38,9.26,7.11,12,2.57,1.86,3.35,3.29,2.53,5.86-.74,2.35-.86,4.31,1.75,6.16,1.45-4.3-.57-8.85,2.16-12.54.46-.64-.5-1.6-1.3-1.77-4.06-.87-4.41-3.81-4.22-7.16.11-1.73-.16-3.64-2.25-3.76-5.34-.29-2.84-2.63-1.49-4.87,1-1.71,3.19-4.27-.38-4.92-4.93-.88-5.56-5.56-8.27-8.25-3.13-3.11-5.83-5.93-10.48-5.74-2.24.09-5,1.55-5.19-2.58-.06-.94-1.36-1.49-2.4-1.17-5.6,1.67-10.67,1.31-15-3.18-3-3.11-6.86-.11-10.13-1.11-6.55-2-12.56,2.71-19.05,1.33-.52-.11-1.44.76-1.88,1.38-1.56,2.15-3.76,2.25-6.12,2.38-6.81.37-13.51-2.83-20.46-.16-2.62,1-5.55-.13-8.35,2.48-1.59,1.47-6.07,2.8-9.22.73-4.74-3.11-9.72-1-13.08,1.2-5.52,3.65-10.9,2.43-16.46,2.19-1.42-.07-2.66-.85-4.12.25-6.75,5.09-14,5.66-21.55,2-2.69-1.31-4,1.76-6.28,1.53-.68-.07-.69,1.28-.18,1.55,2.83,1.46,4.28,5.32,8.12,4.93a11,11,0,0,1,8.87,3c0,.61-.07,1.21-.11,1.82l-1.89.09-4.91-.06c0-1.57-.25-2.78-2.26-2.86-2.17-.08-2.76,1.06-2.66,2.93-1.39,0-2.85,0-3,2l-5.84.07c-7.47-.85-14.35,2.58-21.66,2.95h-7.88c0-2-.16-3.95,2.1-5,1-.5,2-1.32,1.18-2.7-.69-1.13-1.89-1.1-3.06-1.11-1.4,0-1.93.8-2.37,2s-.74,2.79-2.43,2.63-1.05-1.72-1.4-2.73c-1.3-3.81-6.2-5.17-8.39-1.94-1.85,2.75-4,2.72-6.63,3-5.88.64-12.33-2.09-17.52,3a3.86,3.86,0,0,1-3.22.8c-3.87-1.14-8.06,1.22-11.85-1.43-1.66-1.16-3.9.12-4.69,1.58-1.7,3.16-4.35,2.94-7.15,2.91H272.17c-2.67,0-4.18,1.47-4.94,3.87-1.43,4.48-3.63,5.26-7.08,2.06a7.36,7.36,0,0,0-4.63-2.08c-3.48-.42-5.9-.46-9.12,2.5-4.15,3.82-11.9-1.3-16.48,4.29-.09.11-.6-.16-.92-.22-4.92-1-7.73,1.7-9,5.89-.83,2.8-1.83,2.74-3.65,1.24-1-.83-1.89-1.84-3.35-1.81l-.8-.92c7.52-6.63,16.88-9.42,26.08-12.6,2.25-.78,5-.45,6.67-2.61,17.77-1.2,35.05-5.68,52.7-7.81,14.71-1.77,29.34-4.31,44-6.59,10.93-1.69,21.85-3.52,32.77-5.28,10.39-1.29,20.78-2.55,31.17-3.89,15.73-2,31.45-4.2,47.19-6.14,13.49-1.65,27-3.26,40.5-4.51,16.94-1.58,33.72-1.3,49.57,6.2,13.68,6.47,22.78,17,26.89,31.43,6.39,22.36,1.41,43.81-6.87,64.92.12-2.7.08-5.4.39-8.07a122.91,122.91,0,0,0-2.58-41.92c-3.12-13.68-19.87-15.23-28.76-5.52-1.33,1.45-2.61,2.94-4,4.34-7.19,7.31-12,8-21,3.12-5.61-3-11.18-5.94-17.74-6.72-8-.94-13.47,3.15-18.65,8.09-8.42,8-15.09,17.71-24.12,25.15a.79.79,0,0,0-.91.67.66.66,0,0,0,0,.2l-3,2.2a.81.81,0,0,0-1,.57,1,1,0,0,0,0,.17c-2.54,1.19-4.9,2.89-7.86,3H425.7ZM360,178.72c-1.5.14-3.26.32-3.74,1.77-.56,1.69,1.3,2.3,2.41,3.18,4.27,3.41,9.07,2.69,13.84,1.74,1.4-.28,2.87-.95,2.79-2.86-.08-2.06-1.39-2.72-3.24-2.82C368,179.51,363.9,180.38,360,178.72Zm-78.83,11.37c-.27-.16-.5-.4-.75-.41s-.5.22-.75.35c.24.15.47.4.71.41s.51-.21.79-.35Zm200.07-28-.74.43c.24.14.49.39.74.39s.49-.25.73-.38Zm84.91,63-.21-.4c-.09.12-.25.23-.26.35s.12.26.19.39Z" transform="translate(0 0.02)"/><path class="cls-1" d="M58.72,405.42c7.64-.58,14.86.95,21.33,5.49,9.23,6.49,10.91,19.3,3.79,29.25-6,8.46-19.81,10.61-28.17,4.39a13.65,13.65,0,0,1-4.94-14.48c.82-2.94,2.31-1.78,4.07-1,5.33,2.33,9.3,1.56,12.42-2.2,3.51-4.24,2-9.58-3.16-11.45-9.24-3.32-19.89,4-20.85,14.36-.8,8.77,2.58,15.55,9.91,20.56,8.54,5.83,15.65,12.84,18.74,23.21,5.25,17.61-2.45,35.8-19.48,43.39-13.78,6.14-27.93,7.61-41.16-1.82C-2.34,505.44-3.88,486,8.07,476c6.81-5.68,14.62-6.33,22.59-2.71,7.09,3.22,11.53,8.58,11.61,16.74,0,5.06-.62,5.46-5,3.28s-8-1.05-11.26,2A10,10,0,0,0,23.51,507c1.7,4.19,5.64,5.34,9.74,5.32a16.08,16.08,0,0,0,15.17-12.6c2-10.19,1.1-19.55-9.09-27.19-9.17-6.88-16.37-14.9-19.21-26.38a32.2,32.2,0,0,1,23-38.91A49,49,0,0,1,58.72,405.42Z" transform="translate(0 0.02)"/><path class="cls-1" d="M374.34,173.44c-10.92,1.76-21.84,3.59-32.77,5.28-14.65,2.28-29.28,4.82-44,6.59-17.65,2.13-34.93,6.61-52.7,7.81-1-7.66.28-15.47-1.36-23.1a2.91,2.91,0,0,1,.89-3.1c1.62.91.53,2.79,1.59,4.23,2.48-6.49,4.43-13,7.22-19.14s6.89-10.63,11.13-15.37c2.22-2.48,4.52-2.5,7.5-1.38,10.3,3.89,18.29,11.24,26.92,17.63,6.48,4.79,13.12,9.26,21.19,10.76s14.45-3,20.76-7C348,152,353.08,145,359.54,139.48,372.9,128,380,129.48,393,135.36c4.42,2,8.62,4.49,12.93,6.76C399,153.25,389,161.48,379.42,170,377.91,171.44,375.12,170.91,374.34,173.44Z" transform="translate(0 0.02)"/><path class="cls-1" d="M296.85,59.76l3.68-2.19,4-1.88h0a27.24,27.24,0,0,1,12.33-4.52c1.33-.2,3.25-.49,5.56-.86,3.57-.56,5.39-.85,7.34-1.22,1.52-.29,3.67-.73,6.25-1.35l2-.27,3-.64,2.89-.47A3.07,3.07,0,0,0,347,44.19a3.12,3.12,0,0,0-.74-2.71L344.83,38a21.06,21.06,0,0,1,.33-11.46c.18-.54.38-1.06.59-1.55.61-.94,1.22-1.88,1.82-2.82L349.69,20c6.32-3.61,12.85-5.14,19.83-1.91l1.85,1.18,1.1.82,2,2.07,1.86,3.09a17.42,17.42,0,0,1,1.3,11.5c-.39,1.76-.66,3.8,1.87,3.24,5-1.11,10.41-.82,15.88-3.45-5.39-4.6-8.42-9.86-8.19-16.81.29-8.63,4.22-14.62,12-18.09a20,20,0,0,1,21.46,3.58c6.31,6,8.2,14.1,5.16,22-2,5.19-1.82,5.5,3.83,4.83,11.2-1.35,22.36-3.11,33.59-4.19,12.57-1.21,24.53.52,34.42,9.44,1.34,1.21,2.87,2.26,2.93,4.32a5.26,5.26,0,0,1-4.42,3.27c-1.6.15-3.19.7-3.65,2.62l-.84,1.26c-1.53,0-2.08.88-1.92,2.32a.51.51,0,0,1-.3.61c-1.77-.49-5,1.49-4.3-3,1.51-9.58,1.39-9.6-7.87-11.69a7.22,7.22,0,0,0-1.47,0h-6.9l-9.88.1L446.25,39l-4.88.06c-1.39-.05-2.87-.55-4,.82-1.07,0-2.2-.16-3,.89l-8.82.19c-1.47-.18-2.81-.11-3.14,1.75-7.28-.45-14.33,1.2-21.45,2.26l-9.84,1c-1.47-.16-2.83-.16-3.1,1.77l-6.76.18-10.85,1.9a21.89,21.89,0,0,1-7.88,1c-2,.35-4,1.19-6.17,1-4.59-.41-4.63,3-3.16,5.29,2.55,3.93.8,5.28-2.5,6.48l-4-.11c-2.06-1.65-3.07-.51-3.79,1.42a103.07,103.07,0,0,0-10.38,13A78.12,78.12,0,0,1,323.67,89c-8.5,8.54-18.48,6.77-23.82-4-.73-1.47-1.33-3-2.19-4.39s-.52-3.84-2.48-3.79c-1.67,0-2.86,3-3.26,4a69.69,69.69,0,0,1-6.28,11.14V85.77a24.94,24.94,0,0,1,1.3-9.77c.57-1.85,1.15-3.71,1.72-5.57h0c.54-.09.72-.39.5-.9.5-1,1-2,1.49-3l2.06-2.89,1.94-1.92Zm58.6-38.39c-4.26-.68-5.93,1.57-6.51,4.7A2.38,2.38,0,0,0,350.59,29a2.36,2.36,0,0,0,1.29,0,7.89,7.89,0,0,0,6.19-6.19C358.6,20.49,356.07,21.59,355.45,21.37ZM402.94,9.19c-.09-2.2-.95-2.83-2.25-2.67C396.8,7,395.07,10,393.48,13c-.5,1,.49,1.8,1.48,2.1C397.07,15.73,403.07,10.6,402.94,9.19Z" transform="translate(0 0.02)"/><path class="cls-1" d="M346.77,63.43l4,.11a79.4,79.4,0,0,1,14.16,8.56,50.77,50.77,0,0,0,7.9,4.86,20.3,20.3,0,0,0,19.26,0c6.12-3.12,10.57-8.12,15.47-12.66,5.13-4.74,10.64-8.94,18.28-7.37a42.83,42.83,0,0,1,17.12,8c-5.39,5-8,12.11-13.28,17.21-1,1-1.87,2.17-3,3.13-1.67,1.46-.22,1.75.92,2.08v1l-9.84,1a27.16,27.16,0,0,0-11.84,2.78l-7.85.28c-3.67.7-7.53.6-10.84,2.71l-4.91.29a1.54,1.54,0,0,0-2,.66l-3.92.15c-1.5-.29-2.76-.11-3.22,1.64h-1.7c-2.21-.87-4.08,0-5.93,1.1-3.63,0-7.3-.23-10.81,1.09a8.23,8.23,0,0,0-5.91,1.87L338,103.08c-3.93-.31-7.35,1.39-10.85,2.75l-6.86.28a1.62,1.62,0,0,0-2,.76l-1.93.11a7.85,7.85,0,0,0-5.93,1.85L300.59,110c-3.16.25-6.32.53-8.9,2.71l-4.88.12c.63-7.66-1.05-15.21-1.05-22.83,0-1.59-.48-3.28.69-4.71a21.94,21.94,0,0,1,.41,2.68c0,.53.07,1,.08,1.51a52,52,0,0,0,5.05-8.7c.54-1.22,1.67-3.92,3.26-4,2,0,1.65,2.48,2.48,3.79s1.46,2.92,2.19,4.39c5.34,10.72,15.32,12.49,23.82,4a78.12,78.12,0,0,0,8.86-11.08,103.07,103.07,0,0,1,10.38-13C344.3,64.52,345.85,64.81,346.77,63.43Zm-46.7,41.48c27.83-5,55.75-9.56,83.52-15C355.19,91.8,327.07,95,300.07,104.91Z" transform="translate(0 0.02)"/><path class="cls-1" d="M443,64.9a42.83,42.83,0,0,0-17.12-8c-7.64-1.57-13.15,2.63-18.28,7.37-4.9,4.54-9.35,9.54-15.47,12.66a20.3,20.3,0,0,1-19.26,0,50.77,50.77,0,0,1-7.9-4.86,79.4,79.4,0,0,0-14.16-8.56c3.3-1.2,5.05-2.55,2.5-6.48-1.47-2.27-1.43-5.7,3.16-5.29,2.17.19,4.12-.65,6.17-1-2.53,9.55-.53,14,7.86,16.76,1.63,1.29,3.3,2.54,4.88,3.89,3.35,2.84,10.28,2.92,13.83.1,6.4-1.78,10.16-6.69,13.84-11.68,1.26-.21,1.77-1.32,2.57-2.11,6.69-6.62,14.49-9.7,23.88-6.92l1.05.9a8.27,8.27,0,0,0,1,.11c3.11,2,7.1,2.2,9.87,4.87,4.71,2.08,8,6.9,13.78,6.9a16.65,16.65,0,0,0,9.85,2c.38.27.78.8,1.15.77,3.78-.28,13.93-10,14.46-13.84a5.29,5.29,0,0,0-.25-2.37c-1.49-4.39-3-8.76-4.57-13.13a7.22,7.22,0,0,1,1.47,0c9.26,2.09,9.38,2.11,7.87,11.69-.7,4.49,2.53,2.51,4.3,3A50.7,50.7,0,0,1,472.8,70.3l-2.89,1.26-.94.16a31.47,31.47,0,0,1-7.06.28l-3.84-.49-3-1.06-8.25-3.77Z" transform="translate(0 0.02)"/><path class="cls-1" d="M259.32,571.69c1.63,2.18,4.21,2.83,5.57,5,4.09,6.45.32,15-7.83,17.21-6.42,1.77-13,.69-19.53.85-2.15,0-2.65-1.51-2.65-3.35V554.11c0-2.38,1.07-3.16,3.28-3.13,4.23.07,8.46,0,12.69,0,5.67.08,11,1.31,13.38,7.11C266.47,563.71,263.91,568.22,259.32,571.69Zm-3.12,3.38c-2.73-2.92-11.1-5-14.32-3.35-2.33,1.22.46,1.83.61,2.79-2.13,4.16-.74,8.6-1,12.9a2.27,2.27,0,0,0,1,1.55c2.52,1.8,13.65,0,15.64-2.45C261.07,582.93,260.61,580.41,256.2,575.07Zm-7.92-19.17c-6.86,0-6.86,0-6.87,6.43v4.9a3,3,0,0,0,1.44,2.89c2.76,1.59,11.84-.08,13.86-2.58a6.67,6.67,0,0,0-2.11-10.33A11.56,11.56,0,0,0,248.28,555.9Zm-7.8,19.61h-.71c-.09.9-.25,1.79-.26,2.69v10.06a3.67,3.67,0,0,0,1-2.67C240.5,582.22,240.48,578.86,240.48,575.51Z" transform="translate(0 0.02)"/><path class="cls-1" d="M462.23,572.52c0-5.89.1-11.79-.05-17.68-.08-3.07.83-4.5,4.16-4.44a83.25,83.25,0,0,1,15.12,1.24c4.9,1,8.28,3.36,9.22,8.73.91,5.19-.06,9.91-4.53,12.49-5,2.86-3.33,5.15-.79,8.3s5,6.84,7.56,10.24c1.76,2.34.78,3.16-1.68,3.33-2.09.15-3.91-.29-5.2-2.09-2.75-3.84-5.54-7.66-8.24-11.54-1.23-1.76-2.32-3.65-4.66-4-2.58-.42-4.59,0-4.5,3.36.1,3.6,0,7.2,0,10.8,0,2.45-1,3.62-3.53,3.55s-2.94-1.55-2.93-3.59C462.25,585,462.23,578.74,462.23,572.52Zm5.9-8.06c.31,3.17-1.58,7.83,5.26,7.42,7.42-.44,11.39-3,11.26-8.51-.11-4.91-3.9-7.47-11.08-7.48C468.3,555.88,468.12,556.16,468.13,564.46Z" transform="translate(0 0.02)"/><path class="cls-1" d="M384.22,551.6a102.86,102.86,0,0,1-12.64,14.92c-3.37,3.46-3.91,6-.28,9.71,4.54,4.68,8.37,10.06,12.55,15.09.66.79,1.38,1.46.84,2.55s-1.67.8-2.61.85c-2.74.15-4.57-1.31-6.22-3.31-3.86-4.66-7.84-9.22-11.72-13.87-1.33-1.61-2.77-2.95-5-2.27-2.45.75-1.58,3-1.64,4.6-.13,3.6-.1,7.21,0,10.82.05,2.45-.45,4.23-3.46,4.09-2.74-.12-3.71-1.65-3.7-4.16,0-7.37-.32-14.77.17-22.12a88.26,88.26,0,0,0-.1-12.7c-.2-2.58.2-4.87,3.85-4.88s3.2,2.43,3.22,4.68c0,3.12-.06,6.23,0,9.34,0,1.58-.51,3.57,1.43,4.33s3.42-.86,4.58-2.14c3.86-4.24,7.67-8.52,11.31-12.94C377.14,551.32,379.88,550.3,384.22,551.6Z" transform="translate(0 0.02)"/><path class="cls-1" d="M406.55,164.14c8.33-3.77,17.18-5.69,25.94-7.93,16.59-4.27,33.54-6.68,50.49-8.46,10.62-1.11,21.56-1.63,32.26,1,4.57,1.13,9.28,1.73,13.93,2.55,1,.18,2.19.5,2.17,1.59,0,1.35-1.36,1.07-2.29,1.13-3.62.25-7.18-.81-10.72-.81a408.53,408.53,0,0,0-50.77,3.4q-20.85,2.58-41.66,5.4a89.65,89.65,0,0,0-11,2.34A16.42,16.42,0,0,1,406.55,164.14Z" transform="translate(0 0.02)"/><path class="cls-1" d="M306.78,551c2.93-.28,4.27,1.07,5.16,3.31,4.58,11.56,9.28,23.08,13.77,34.67.66,1.7,2.89,4.19,0,5.47a4.32,4.32,0,0,1-6.15-3.24c-1.42-8.58-7.3-8.13-13.85-8.31-6-.16-9.74,1.38-11,7.53a7.14,7.14,0,0,1-1.83,3.38,3.81,3.81,0,0,1-4.59.52c-1.79-.89-1.17-2.47-.61-3.87Q295,572.23,302.29,554C303.16,551.81,304.54,550.42,306.78,551Zm.21,27.35h2.45c5.23,0,5.42-.27,3.6-5.21-1.3-3.5-2.71-7-4.17-10.41-.41-1-.18-2.63-1.65-2.67-1.64,0-1.78,1.68-2.25,2.81-1.07,2.55-2,5.15-3,7.72-3.07,7.81-3.07,7.81,5,7.79Z" transform="translate(0 0.02)"/><path class="cls-1" d="M526.57,583.51c1.94-8.93-6.09-14.62-9.36-22.23-.76-1.79-2.08-3.34-3-5.06-.84-1.54-3.49-3.5-1.36-4.78a5,5,0,0,1,6.9,1.53,4.39,4.39,0,0,1,.27.47c2.6,4.73,5.39,9.36,8.1,14,.56,1,.73,2.46,2,2.62,1.66.22,1.92-1.58,2.51-2.57,2.69-4.48,5.18-9.07,7.74-13.63.74-1.32,1.64-2.52,3.23-2.77,1.43-.22,3.15-.72,4.25.35,1.38,1.33,0,2.86-.68,4-3.38,5.79-6.53,11.79-10.58,17.09s-2.54,10.89-3,16.47c-.17,2.35,1.22,5.76-3.22,5.68-4.23-.07-3.81-3.19-3.81-6Z" transform="translate(0 0.02)"/><path class="cls-1" d="M409.57,552.8c-.32-1.76.93-1.83,2.08-1.81,7.59.08,15.18.21,22.76.31,1.77,3.84-.32,4.23-3.53,4.56-2.46.25.57-2.23-1.52-2.07-4.08.3-8.19.11-12.28.13-1.35,0-2.25.66-2.24,2,0,4.72-1.61,10,.68,14,2.1,3.62,7.26,1,11,1.55a24.2,24.2,0,0,0,3,0c1.84.06,1.95,1.39,2,2.77l-.13.1H422c-8.46,0-8.46,0-8.19,8.35a9.55,9.55,0,0,0,.09,2c.78,3.44,2.08,6.11,6.51,5.57a76.4,76.4,0,0,1,9.08-.07c-1.77,1-3.54.85-5.28,1-2.84.32-5.87-1-8.54.89l.09,1.74c-2,.24-4.15,1.11-5.91-.75a27.29,27.29,0,0,0,.91-4.75c.08-10.91,0-21.81,0-32.71C410.8,554.57,410.87,553.41,409.57,552.8Z" transform="translate(0 0.02)"/><path class="cls-1" d="M415.67,592.2c2.67-1.94,5.7-.57,8.54-.89,1.74-.2,3.51,0,5.28-1a76.4,76.4,0,0,0-9.08.07c-4.43.54-5.73-2.13-6.51-5.57a9.55,9.55,0,0,1-.09-2c-.27-8.35-.27-8.35,8.19-8.35h9.32c-3.54,1.86-7.34.64-11,.77-2.92.1-4.07,1-4,4,.11,11.42-.72,9.19,8.87,9.41,2.78.07,5.56,0,8.34,0,2.11,0,3.49.59,3.52,3s-1,3.47-3.25,3.25-4.91.86-7.11-.83c2.44-1.68,5.22-.4,7.79-.9,1.08-.83,1.36-1.73.09-2.58-.26-.18-.8,0-1.21.08l1,1.47Z" transform="translate(0 0.02)"/><path class="cls-1" d="M431.45,574.33c0-1.38-.12-2.71-2-2.77a24.2,24.2,0,0,1-2.95,0c-3.76-.56-8.92,2.07-11-1.55-2.29-4-.65-9.28-.68-14,0-1.38.89-2,2.24-2,4.09,0,8.2.17,12.28-.13,2.09-.16-.94,2.32,1.52,2.07,3.21-.33,5.3-.72,3.53-4.56,2.59-.38,2.61,1.45,2.45,3.08-.17,1.85-1.63,2.21-3.23,2.21-4.24,0-8.48.14-12.71,0-3.21-.13-4.7.72-4.7,4.33,0,7.91-.19,8,7.57,8.72,2.1.21,4.27-.14,6.34.2C433.38,570.32,434.26,571.87,431.45,574.33Z" transform="translate(0 0.02)"/><path class="cls-1" d="M409.57,552.8c1.3.61,1.23,1.77,1.23,2.93v32.71a27.29,27.29,0,0,1-.91,4.75,1.79,1.79,0,0,1-1.49-2.05l0-.15c1.29-12.25.14-24.55.69-36.82A4.69,4.69,0,0,1,409.57,552.8Z" transform="translate(0 0.02)"/><path class="cls-1" d="M208.07,211.35l1.71-1.21,2.21.1c-.32,1.85,1,4.85-1,5.38-4.72,1.27-7.23,4.58-9.7,8.2-.63.93-1.41.43-2.16.18,0-1.38-.11-2.75-.16-4.13h0C202.88,218,206.79,216.11,208.07,211.35Z" transform="translate(0 0.02)"/><path class="cls-1" d="M285.86,113.19c-.24.42-.39,1.08-.73,1.21-7.35,2.75-14.72,5.44-22.08,8.14C269.5,116.62,277.65,114.83,285.86,113.19Z" transform="translate(0 0.02)"/><path class="cls-1" d="M504.07,48c1.25,1,2,2.13,1.37,3.8-2.33,3.2-.55,6.83-1.07,10.22L498.83,50.8c1.63-.19,2,1.85,3.22,2.07C503.72,51.49,502.83,49.31,504.07,48Z" transform="translate(0 0.02)"/><path class="cls-1" d="M492.47,47.55c.46-1.92,2-2.47,3.65-2.62a5.26,5.26,0,0,0,4.42-3.27l2.06,3.17c-.69,2.71-4.51,1.38-5.24,4C495.82,48.1,494.33,47.15,492.47,47.55Z" transform="translate(0 0.02)"/><path class="cls-1" d="M497.36,48.87c.73-2.66,4.55-1.33,5.24-4,.87.86,1.75,1.72,1.48,3.13-1.25,1.35-.36,3.53-2,4.87-1.27-.22-1.59-2.26-3.22-2.07a.76.76,0,0,1-.45-.78l-1-1.15Z" transform="translate(0 0.02)"/><path class="cls-1" d="M415.67,592.2q9.31-.06,18.63-.09a8,8,0,0,0,.13,1c-2.57.5-5.35-.78-7.79.9a50.73,50.73,0,0,1-10.88-.09Z" transform="translate(0 0.02)"/><path class="cls-1" d="M208.07,211.35c-1.24,4.76-5.15,6.68-9.1,8.56C200.62,215.63,204.27,213.43,208.07,211.35Z" transform="translate(0 0.02)"/><path class="cls-1" d="M188.12,235.31c.24,2.83.69,5.76-3.22,6.54C185.07,239.24,185.71,236.84,188.12,235.31Z" transform="translate(0 0.02)"/><path class="cls-1" d="M504.38,62c.52-3.39-1.26-7,1.07-10.22v2.38c-.09,1.26-.47,2.59.84,3.52.36,2,.62,4-.29,5.91h-.31Z" transform="translate(0 0.02)"/><path class="cls-1" d="M191.17,229.68c-.14,2.2,1.31,5.32-3,5.16C188.48,232.7,189.14,230.8,191.17,229.68Z" transform="translate(0 0.02)"/><path class="cls-1" d="M199,219.87c0,1.38.11,2.75.16,4.13h-4A5.69,5.69,0,0,1,199,219.87Z" transform="translate(0 0.02)"/><path class="cls-1" d="M195.17,224c-.06,2.52-.27,4.94-3.67,5C192.36,227,192.93,224.88,195.17,224Z" transform="translate(0 0.02)"/><path class="cls-1" d="M506.34,57.66c-1.31-.93-.93-2.26-.84-3.52C506.72,55.09,507.61,56.12,506.34,57.66Z" transform="translate(0 0.02)"/><path class="cls-1" d="M212,210.24l-2.21-.1a2.4,2.4,0,0,1,2.39-1.81l.8.92Z" transform="translate(0 0.02)"/><path class="cls-1" d="M244.56,152.16c1.13,1,1.12,2-.13,3C243.18,154.07,243.19,153.09,244.56,152.16Z" transform="translate(0 0.02)"/><path class="cls-1" d="M489.71,51.13c-.16-1.44.39-2.28,1.92-2.32Z" transform="translate(0 0.02)"/><path class="cls-1" d="M441.35,243.73a.79.79,0,0,1,.83-.76l.17,0Z" transform="translate(0 0.02)"/><path class="cls-1" d="M447.58,271.5l-1.33.56Z" transform="translate(0 0.02)"/><path class="cls-1" d="M545.73,272l-1.24-.57Z" transform="translate(0 0.02)"/><path class="cls-1" d="M482.65,124.62l1,.85Z" transform="translate(0 0.02)"/><path class="cls-1" d="M551.61,273.89l-1.19-.53Z" transform="translate(0 0.02)"/><path class="cls-1" d="M497.38,48.83l1,1.15Z" transform="translate(0 0.02)"/><path class="cls-1" d="M567.38,280.89a.84.84,0,0,1-1-.53l0-.15Z" transform="translate(0 0.02)"/><path class="cls-1" d="M394.18,287.08l-1.07.53Z" transform="translate(0 0.02)"/><path class="cls-1" d="M372.47,20.11l-1.1-.82Z" transform="translate(0 0.02)"/><path class="cls-1" d="M380.71,291.27l-1.36.73A1.11,1.11,0,0,1,380.71,291.27Z" transform="translate(0 0.02)"/><path class="cls-1" d="M378.64,292.15l-1.31.64Z" transform="translate(0 0.02)"/><path class="cls-1" d="M445.38,240.79a.81.81,0,0,1,.72-.88h.2Z" transform="translate(0 0.02)"/><path class="cls-1" d="M212,210.24l1-1c1.46,0,2.34,1,3.35,1.81,1.82,1.5,2.82,1.56,3.65-1.24,1.25-4.19,4.06-6.87,9-5.89.32.06.83.33.92.22,4.58-5.59,12.33-.47,16.48-4.29,3.22-3,5.64-2.92,9.12-2.5a7.36,7.36,0,0,1,4.63,2.08c3.45,3.2,5.65,2.42,7.08-2.06.76-2.4,2.27-3.88,4.94-3.87h10.31c2.8,0,5.45.25,7.15-2.91.79-1.46,3-2.74,4.69-1.58,3.79,2.65,8,.29,11.85,1.43a3.86,3.86,0,0,0,3.22-.8c5.19-5.08,11.64-2.35,17.52-3,2.61-.29,4.78-.26,6.63-3,2.19-3.23,7.09-1.87,8.39,1.94.35,1-.17,2.58,1.4,2.73s2-1.46,2.43-2.63,1-2,2.37-2c1.17,0,2.37,0,3.06,1.11.85,1.38-.14,2.2-1.18,2.7-2.26,1.09-2.14,3-2.1,5a6.68,6.68,0,0,1-3.92,1c-1.59.32-3.2,1-4.75.9-4.87-.4-8.43.75-9.12,6.28-.11.88-.57,1.61-1.59,1.42-1.34-.25-1.34-1.29-1-2.25.59-1.47.39-2.59-1.15-3.18a2.07,2.07,0,0,0-2.24.56c-1.16,1.14-.25,2.35-.26,3.57,0,7,2.83,14.33-3.2,20.5-2.91,3-1.79,8.06,2,11.49,3.37,3.09,3,6-1,7.23-.57.18-1.64.33-1.76.11C318,236.72,315.32,239,313,239l-1.56-1.1-1-1h.06l-1.23-1c-2.23-.48-3.45-2.19-4.7-3.86.28-4.71.79-9.56-6.34-9.17a1.7,1.7,0,0,1-1.22-.67c-2.27-3-4.45-1.43-6.64.07l-5.15-.13c-.79-.1-1.58-.14-2.35-.29-1.29-.25-2.12-2.3-3.75-1.13-1.84,1.33.15,2.89-.08,4.34l-.23.16-.28-.05c-7.08-1.59-12.18,3.7-10.29,10.68h0c-2.13,1-5.53.86-4,4.84a3,3,0,0,1-1.89,2c-3.7,1.43-9.31-.28-11,3.92-2.48,6.06-6.31,4.76-10.81,4-2.13-.34-3.44-.68-4.43-2.85-.88-1.92-2.06-3.75-4.77-4.45-2.05-.53-4.3-2.42-2.22-5.57,1.56-2.36.21-3.61-2.24-4-.75-1.26-1-3.08-3.12-2.8h0c-.25-1.42-.51-2.84-.75-4.27-1.08-6.38-2-7.12-8.17-6.28-1-1.86,2.42-1.1,1.64-2.67-.53-1.07-1.7-.73-2.62-.65-2.06.17-2.63,1.57-2.68,3.39,0,1.58-.31,4.54-1.69,3.83-3.86-2-7.77,5.36-11.12-.41h1c.75.25,1.53.75,2.16-.18,2.47-3.62,5-6.93,9.7-8.2C213,215.09,211.63,212.09,212,210.24Z" transform="translate(0 0.02)"/><path class="cls-1" d="M347.63,290c-4.07,3.52-8.72,3.48-12.76,4.76a309.46,309.46,0,0,1-48.43,11.49c-16,2.36-32.13,4.21-48.08.21-5.38-1.35-11.08-2.85-15.59-6.67-.73-.62-1.93-1.06-1.37-2.22s1.69-.74,2.62-.51c14.22,3.56,28.75,4.11,43.26,3.6a303.08,303.08,0,0,0,49-5.28q13.64-2.75,27.29-5.35A25,25,0,0,1,347.63,290Z" transform="translate(0 0.02)"/><path class="cls-1" d="M226.71,233.87c2.45.37,3.8,1.62,2.24,4-2.08,3.15.17,5,2.22,5.57,2.71.7,3.89,2.53,4.77,4.45,1,2.17,2.3,2.51,4.43,2.85,4.5.71,8.33,2,10.81-4.05,1.72-4.2,7.33-2.49,11-3.92-4.47,6.22-10.2,11-17.74,12.47-8.81,1.78-15.35-3.72-18.46-14.56C227.41,238.52,226.4,236.13,226.71,233.87Z" transform="translate(0 0.02)"/><path class="cls-1" d="M290.23,222.29c2.19-1.5,4.37-3,6.64-.07a1.7,1.7,0,0,0,1.22.67c7.13-.39,6.62,4.46,6.34,9.17Z" transform="translate(0 0.02)"/><path class="cls-1" d="M268.07,235.87c-1.89-7,3.21-12.27,10.29-10.68C275.22,229,272.07,232.83,268.07,235.87Z" transform="translate(0 0.02)"/><path class="cls-1" d="M226.71,233.87c-.31,2.26.7,4.65-.7,6.79a17.73,17.73,0,0,1-2.42-9.6C225.72,230.79,226,232.61,226.71,233.87Z" transform="translate(0 0.02)"/><path class="cls-1" d="M278.9,225.08c.23-1.45-1.76-3,.08-4.34,1.63-1.17,2.46.88,3.75,1.13.77.15,1.56.19,2.35.29C283.42,224,281.07,224.35,278.9,225.08Z" transform="translate(0 0.02)"/><path class="cls-1" d="M264.07,240.7c-1.53-4,1.87-3.88,4-4.84A8.06,8.06,0,0,1,264.07,240.7Z" transform="translate(0 0.02)"/><path class="cls-1" d="M310.3,236.87l1,1Z" transform="translate(0 0.02)"/><path class="cls-1" d="M309.13,235.92l1.23,1Z" transform="translate(0 0.02)"/><path class="cls-1" d="M436.4,129.49c-7.75,9.66-18.79,10.72-29.29,6-6.36-2.84-11.84-7.25-18.38-9.89a37,37,0,0,0-11.29-2.79c-5.84-.38-7.91-4.67-10.44-8.52-1.3-2,.46-3.76,2.18-4.12,13.48-2.84,26.92-5.92,40.67-7.26-1.3,5,6.19,19.53,11,21.19a13.25,13.25,0,0,0,3.86.45c1.37,0,2.77.16,3.53,1.35C430.22,129,433.34,129.1,436.4,129.49Z" transform="translate(0 0.02)"/><path class="cls-1" d="M449.21,97c3.18-2.19,7-1.24,10.42-1.67,10.34-1.29,20.8-1.71,31.22-2.2a35.66,35.66,0,0,1,9.2,1.06,7.76,7.76,0,0,1,4.51,11.87c-1.37,1.92-1.23,3.5-.35,5.45,1.75,3.9,2.48,7.62-2.7,9.64a2.64,2.64,0,0,0-.74.63c-6,5.86-5.71,5.43-12.7,0-4.89-3.77-9.24-8.26-14.48-11.48-6.08-3.72-12.56-5.78-19.19-.74a12.14,12.14,0,0,1-3.18,1.21c.13-2.36,2.44-2.82,3.74-4.13,2.34-2.37,2.08-7-.77-8.42C452.64,97.5,450.56,98.73,449.21,97Z" transform="translate(0 0.02)"/><path class="cls-1" d="M449.21,97c1.35,1.69,3.43.46,5,1.25,2.85,1.45,3.11,6,.77,8.42-1.3,1.31-3.61,1.77-3.74,4.13-1.06,3.09-4.62,4-5.95,6.85a1.76,1.76,0,0,0-1.93,1.57,2,2,0,0,0,0,.43c-1.42,3.9-4.9,6.34-6.95,9.79-3.06-.39-6.18-.51-8.11-3.56-.76-1.19-2.16-1.32-3.53-1.35a13.25,13.25,0,0,1-3.86-.45c-4.86-1.66-12.35-16.15-11.05-21.19,6.3-.19,12.54-.63,18.41-3.26,2.63-1.18,5.44-.44,8.16-.65,1.6,1.54,2.55,1,3-1Z" transform="translate(0 0.02)"/><path class="cls-1" d="M405.92,92.1a27.16,27.16,0,0,1,11.84-2.78A12.39,12.39,0,0,1,405.92,92.1Z" transform="translate(0 0.02)"/><path class="cls-1" d="M387.23,95.09c3.31-2.11,7.17-2,10.84-2.71C394.91,95.12,391.63,97.34,387.23,95.09Z" transform="translate(0 0.02)"/><path class="cls-1" d="M327.15,105.84c3.5-1.36,6.92-3.06,10.85-2.75C334.64,105,331.57,108.08,327.15,105.84Z" transform="translate(0 0.02)"/><path class="cls-1" d="M291.69,112.67c2.58-2.18,5.74-2.46,8.9-2.71C298.24,112.88,295.22,113.61,291.69,112.67Z" transform="translate(0 0.02)"/><path class="cls-1" d="M310.42,108.84a7.85,7.85,0,0,1,5.93-1.85C315,109.51,313.07,110.4,310.42,108.84Z" transform="translate(0 0.02)"/><path class="cls-1" d="M348.82,101.93a8.23,8.23,0,0,1,5.91-1.87C353.38,102.66,351.48,103.51,348.82,101.93Z" transform="translate(0 0.02)"/><path class="cls-1" d="M365.54,99c1.85-1,3.72-2,5.93-1.1C369.75,99.62,368,101,365.54,99Z" transform="translate(0 0.02)"/><path class="cls-1" d="M439.42,98.06c-.45,2-1.4,2.51-3,1C437.13,97.83,438.3,98,439.42,98.06Z" transform="translate(0 0.02)"/><path class="cls-1" d="M373.17,97.83c.46-1.75,1.72-1.93,3.22-1.64C376.07,98.24,374.63,98,373.17,97.83Z" transform="translate(0 0.02)"/><path class="cls-1" d="M318.28,106.88a1.62,1.62,0,0,1,2-.76C320,107.36,319.6,108.33,318.28,106.88Z" transform="translate(0 0.02)"/><path class="cls-1" d="M380.31,96a1.54,1.54,0,0,1,2-.66C382,96.56,381.52,97.48,380.31,96Z" transform="translate(0 0.02)"/><path class="cls-1" d="M443.35,119.7a1.76,1.76,0,0,1,1.49-2,2.06,2.06,0,0,1,.43,0,1.8,1.8,0,0,1-1.61,2A1.61,1.61,0,0,1,443.35,119.7Z" transform="translate(0 0.02)"/><path class="cls-1" d="M398.07,185.65a11,11,0,0,0-8.87-3c-3.84.39-5.29-3.47-8.12-4.93-.51-.27-.5-1.62.18-1.55,2.31.23,3.59-2.84,6.28-1.53,7.52,3.69,14.8,3.12,21.55-2,1.46-1.1,2.7-.32,4.12-.25,5.56.24,10.94,1.46,16.46-2.19C433,168,438,165.89,442.75,169c3.15,2.07,7.63.74,9.22-.73,2.8-2.61,5.73-1.48,8.35-2.48,6.95-2.67,13.65.53,20.46.16,2.36-.13,4.56-.23,6.12-2.38.44-.62,1.36-1.49,1.88-1.38,6.49,1.38,12.5-3.33,19.05-1.33,3.27,1,7.13-2,10.13,1.11,4.34,4.49,9.41,4.85,15,3.18,1-.32,2.34.23,2.4,1.17.24,4.13,3,2.67,5.19,2.58,4.65-.19,7.35,2.63,10.48,5.74,2.71,2.69,3.34,7.37,8.27,8.25,3.57.65,1.41,3.21.38,4.92-1.35,2.24-3.85,4.58,1.49,4.87,2.09.12,2.36,2,2.25,3.76-.19,3.35.16,6.29,4.22,7.16.8.17,1.76,1.13,1.3,1.77-2.73,3.69-.71,8.24-2.16,12.54-2.61-1.85-2.49-3.81-1.75-6.16.82-2.57,0-4-2.53-5.86-3.73-2.7-10-4.73-7.11-12,.93-2.31-1.62-4.22-3.31-3.9-5.13,1-7.46-1.86-9.59-5.6-.25-.44-1.11-.53-1.69-.79a2.06,2.06,0,0,0-2-1c0-2-1.42-2.93-3-3.39-3.25-.93-6.56-1.66-9.84-2.47-9.73-1.39-19.53-1-29.31-1-1.72,0-3.63-.64-5.1.93l-13.72.15c-2.8-.08-5.74-.72-7.95,1.81l-12.64.21c-1.62-.06-3.51-.82-4.18,1.6l-5.81.12c-.7-.95-1.35-.88-2,.1l-4.81.09c-1.77.24-4.07-1.22-5.06,1.57l-5.89.2c-3.76-.93-7.33,0-10.87,1.13l-4.74.14c-1.15-.18-2.31-.39-3.09.81l-1.89.08-3-.08c-2.2-1.12-4.44-2.47-5.92.94Z" transform="translate(0 0.02)"/><path class="cls-1" d="M457.23,178.91l12.64-.21,1,.06c-.21,4,.26,7.53,3.13,10.87a10.85,10.85,0,0,1,2.94,8c-.85,4-5.46,3.56-7.53,6.8-3.66,5.72-9.49,9.88-13.32,15.65-1.9.14-2.91,1.11-2.85,3.07l-3.93,3.95c-2.43,2.29-6.46,3.3-6.16,7.76a1.76,1.76,0,0,1-1.86.82c-.46-.92-1.34-1.28-2.16-1.82-4.62-3.05-11.08-2.33-14.85-6.81-7.87-9.36-14.61-19.2-9.12-32.37.7-1.68-.21-2.84-1-4-.85-1.34-2.47-2.22-2.37-4.11h1.89c1.76-.36,4.28,1.27,5-1.89,3.73-.1,7.53.21,10.83-2.08l5.89-.2v.34c.29,3-.16,5.28-3.49,6.65-7.08,2.9-8.46,15.19-2.44,20.23,1.74,1.46,3.47,2.95,5.27,4.35,3.17,2.48,7.38,4.41,10.74,3.58,5.33-1.32,10-4.71,11.06-11.14a47.16,47.16,0,0,0,.12-13.63c-.42-3.35-3.41-3.42-5.65-4.55a4.79,4.79,0,0,1-1.68-2.33c-.82-1.74-2.18-2.2-4-2.27s-3.66.7-5.07-1l.15-1.8,4.81-.09c.71,1,1.36.93,2-.1l5.81-.11C454.69,180.63,456.54,181.28,457.23,178.91Z" transform="translate(0 0.02)"/><path class="cls-1" d="M411.82,186.54c-.1,1.89,1.52,2.77,2.37,4.11.76,1.19,1.67,2.35,1,4-5.49,13.17,1.25,23,9.12,32.37,3.77,4.48,10.23,3.76,14.85,6.81.82.54,1.7.9,2.16,1.82-2,3.37-5.54,3.49-8.81,4.2-1.46-1.58-1.75-.44-2,.85h-2.94c-.23-1.3-.52-2.44-2-.84l-3.85-.27c-.58-2.12-2.21-2.62-4.14-2.65-4.92-2.86-10.18-5.26-13.8-9.93,2.27-4.36-1.52-7.42-3.12-10.27-4.19-7.44-9-14.24-4.86-23.37.75-1.64.18-3.88.22-5.85l1.89-.09c1.83-.2,4.21,1.23,5.1-1.73l2.88-.06c1.56,1.51,2.51,1,3-.93l1.89-.08C411.15,185.29,411.48,185.92,411.82,186.54Z" transform="translate(0 0.02)"/><path class="cls-1" d="M491.54,176.74c1.47-1.57,3.38-.93,5.1-.93,9.78,0,19.58-.4,29.31,1v.95c.46,3.43.19,7.13,3.74,9.34a4.49,4.49,0,0,1,2,5.56,13.73,13.73,0,0,0-.74,4.8c-8.7,13.08-20.21,10-28.3,3.53-3.41-2.72-7.73-2.23-11.1-4.49,2.67-1.24,2.59-4.18,3.9-6.26C500.24,182.6,499.46,179.78,491.54,176.74Z" transform="translate(0 0.02)"/><path class="cls-1" d="M355.7,192.54c7.31-.37,14.19-3.8,21.66-2.95-3.21,9.45,0,17.65,4.93,25.54-8-.45-15.78.22-22.66,5a6.17,6.17,0,0,1-3.95-6.9,17.38,17.38,0,0,0-1.32-8.52C352.6,200.38,351.31,196.15,355.7,192.54Z" transform="translate(0 0.02)"/><path class="cls-1" d="M382.29,215.13c-4.88-7.89-8.14-16.09-4.93-25.54l5.84-.07c1.78-.33,4.25,1.21,5-1.86l2.92-.16,4.91.06c0,2,.53,4.21-.22,5.85-4.18,9.13.67,15.93,4.86,23.37,1.6,2.85,5.39,5.91,3.12,10.27-4.78-1.87-8.29-5.67-12.59-8.28C388.42,217.07,385.71,215.26,382.29,215.13Z" transform="translate(0 0.02)"/><path class="cls-1" d="M355.7,192.54c-4.39,3.61-3.1,7.84-1.34,12.14a17.38,17.38,0,0,1,1.32,8.52,6.17,6.17,0,0,0,3.95,6.9c-1.77,3.63-6.21,4.13-8.52,7.36-1,1.44-3.22.32-4.33-1.55-4-6.75-9.42-12.75-9.42-21.45,0-3.87-.7-7.24,4.29-8.12a2.73,2.73,0,0,0,2.25-2.82,6.68,6.68,0,0,0,3.92-1Z" transform="translate(0 0.02)"/><path class="cls-1" d="M491.54,176.74c7.92,3,8.7,5.86,3.9,13.49-1.31,2.08-1.23,5-3.9,6.26a51.9,51.9,0,0,0-14.6,1.14,10.85,10.85,0,0,0-2.94-8c-2.87-3.34-3.34-6.9-3.13-10.87,2.28-.74,5.39,1.57,6.95-1.87Z" transform="translate(0 0.02)"/><path class="cls-1" d="M530.94,197.45a13.73,13.73,0,0,1,.74-4.8,4.49,4.49,0,0,0-2-5.56c-3.55-2.21-3.28-5.91-3.74-9.34,4.15,2,8,4.85,12.82,4.91a2.06,2.06,0,0,1,2,1c1.58,5.59-.29,9.19-6,11C533.38,195.06,532.23,196.48,530.94,197.45Z" transform="translate(0 0.02)"/><path class="cls-1" d="M360,178.72c3.92,1.66,8,.79,12.06,1,1.85.1,3.16.76,3.24,2.82.08,1.91-1.39,2.58-2.79,2.86-4.77,1-9.57,1.67-13.84-1.74-1.11-.88-3-1.49-2.41-3.18C356.72,179,358.48,178.86,360,178.72Z" transform="translate(0 0.02)"/><path class="cls-1" d="M443.15,234.86c-.3-4.46,3.73-5.47,6.16-7.76C449.07,231.12,445.84,232.78,443.15,234.86Z" transform="translate(0 0.02)"/><path class="cls-1" d="M391.13,187.5l-2.92.16-2-.09c-.1-1.87.49-3,2.66-2.93C390.88,184.72,391.16,185.93,391.13,187.5Z" transform="translate(0 0.02)"/><path class="cls-1" d="M403.07,185.74c-.89,3-3.27,1.53-5.1,1.73,0-.61.07-1.21.11-1.82H400Z" transform="translate(0 0.02)"/><path class="cls-1" d="M386.21,187.57l2,.09c-.76,3.07-3.23,1.53-5,1.86C383.36,187.57,384.82,187.61,386.21,187.57Z" transform="translate(0 0.02)"/><path class="cls-1" d="M417.6,237c1.93,0,3.56.53,4.14,2.65C419.83,239.59,418.18,239.11,417.6,237Z" transform="translate(0 0.02)"/><path class="cls-1" d="M453.24,223.15c-.06-2,.95-2.93,2.85-3.07a2.94,2.94,0,0,1-2.81,3.07Z" transform="translate(0 0.02)"/><path class="cls-1" d="M425.59,239.9c1.46-1.6,1.75-.46,2,.84A2,2,0,0,1,425.59,239.9Z" transform="translate(0 0.02)"/><path class="cls-1" d="M430.49,240.73c.24-1.29.53-2.43,2-.85A2,2,0,0,1,430.49,240.73Z" transform="translate(0 0.02)"/><path class="cls-1" d="M281.15,190.09c-.28.14-.54.36-.79.35s-.47-.26-.71-.41c.25-.13.5-.35.75-.35S280.88,189.93,281.15,190.09Z" transform="translate(0 0.02)"/><path class="cls-1" d="M481.22,162.06l.73.44c-.24.13-.49.38-.73.38s-.5-.25-.74-.39Z" transform="translate(0 0.02)"/><path class="cls-1" d="M566.13,225l-.28.34c-.07-.13-.2-.27-.19-.39s.17-.23.26-.35Z" transform="translate(0 0.02)"/><path class="cls-1" d="M403,59.81c-3.68,5-7.44,9.9-13.84,11.68-1.87-2.8-3.87-5.52-5.58-8.41a20.41,20.41,0,0,1-2.26-15.18l6.76-.18c1.44.11,2.84.18,3.1-1.77l9.88-1C400.43,50.1,398.37,55.4,403,59.81Z" transform="translate(0 0.02)"/><path class="cls-1" d="M403,59.81c-4.64-4.41-2.58-9.71-2-14.81,7.12-1.06,14.17-2.71,21.45-2.26,1.47.17,2.92.31,3.14-1.75l8.82-.19c-1.36,3.57.67,8-3,11a8.27,8.27,0,0,1-1-.11l-1.05-.9c-9.44-2.81-17.19.3-23.88,6.92C404.78,58.49,404.27,59.6,403,59.81Z" transform="translate(0 0.02)"/><path class="cls-1" d="M381.33,47.9a20.41,20.41,0,0,0,2.26,15.18c1.71,2.89,3.71,5.61,5.58,8.41-3.55,2.82-10.48,2.74-13.83-.1-1.58-1.35-3.25-2.6-4.88-3.89-1.45-5.9-2.2-11.8,0-17.7Z" transform="translate(0 0.02)"/><path class="cls-1" d="M465,65.57a16.65,16.65,0,0,1-9.85-2c2.23-8.67,5.34-17.21,3.86-26.42l9.88-.15c.2,2.41-.06,4.8.59,7.23.78,3,1.14,6.18-.41,9A38.47,38.47,0,0,0,465,65.57Z" transform="translate(0 0.02)"/><path class="cls-1" d="M459,37.14c1.48,9.21-1.63,17.75-3.86,26.42-5.75,0-9.07-4.82-13.78-6.9,4.93.38,6.44-2.62,6.9-6.83.42-3.82-.63-7.33-2-10.8Z" transform="translate(0 0.02)"/><path class="cls-1" d="M465,65.57a38.58,38.58,0,0,1,4.09-12.31c1.55-2.82,1.19-6,.41-9-.65-2.43-.39-4.82-.59-7.23h6.9c1.53,4.37,3.08,8.74,4.57,13.13a5.29,5.29,0,0,1,.25,2.37c-.53,3.85-10.68,13.56-14.46,13.84C465.76,66.37,465.36,65.84,465,65.57Z" transform="translate(0 0.02)"/><path class="cls-1" d="M446.25,39c1.37,3.47,2.42,7,2,10.8-.46,4.21-2,7.21-6.9,6.83-2.77-2.67-6.76-2.89-9.87-4.87,3.63-2.95,1.6-7.42,3-11,.76-1,1.89-.86,3-.89,1.66,1.38,3.12,1.76,4-.82Z" transform="translate(0 0.02)"/><path class="cls-1" d="M370.48,49.8c-2.22,5.9-1.47,11.8,0,17.7-8.41-2.8-10.41-7.21-7.88-16.73A21.93,21.93,0,0,0,370.48,49.8Z" transform="translate(0 0.02)"/><path class="cls-1" d="M355.45,21.37c.64.22,3.15-.88,2.61,1.44A7.89,7.89,0,0,1,351.88,29,2.37,2.37,0,0,1,349,27.35a2.34,2.34,0,0,1,0-1.26C349.52,22.94,351.19,20.69,355.45,21.37Z" transform="translate(0 0.02)"/><path class="cls-1" d="M402.94,9.19c.1,1.41-5.92,6.54-8,5.93-1-.3-2-1.14-1.48-2.1,1.57-3,3.32-6,7.21-6.5C402,6.36,402.85,7,402.94,9.19Z" transform="translate(0 0.02)"/><path class="cls-1" d="M441.37,39.09c-.85,2.58-2.31,2.2-4,.82C438.5,38.54,440,39,441.37,39.09Z" transform="translate(0 0.02)"/><path class="cls-1" d="M346.77,63.43c-.92,1.38-2.47,1.09-3.79,1.42C343.7,62.92,344.71,61.78,346.77,63.43Z" transform="translate(0 0.02)"/><path class="cls-1" d="M391.19,46c-.26,2-1.66,1.88-3.1,1.77C388.36,45.79,389.72,45.79,391.19,46Z" transform="translate(0 0.02)"/><path class="cls-1" d="M425.62,41c-.22,2.06-1.67,1.92-3.14,1.75C422.81,40.88,424.15,40.81,425.62,41Z" transform="translate(0 0.02)"/><path class="cls-1" d="M300.07,104.91C327.07,95,355.19,91.8,383.6,90,355.83,95.35,327.91,99.9,300.07,104.91Z" transform="translate(0 0.02)"/><path class="cls-1" d="M429.46,50.78l1.05.9Z" transform="translate(0 0.02)"/><path class="cls-1" d="M256.2,575.07l-1.6-.42-1.41-.1h-10.7c-.15-1-2.94-1.57-.61-2.79C245.07,570,253.47,572.15,256.2,575.07Z" transform="translate(0 0.02)"/><path class="cls-1" d="M240.48,575.51v10.06a3.67,3.67,0,0,1-1,2.67V578.18c0-.9.17-1.79.26-2.69Z" transform="translate(0 0.02)"/><path class="cls-1" d="M434.43,593.13a6.51,6.51,0,0,0-.13-1l-1-1.48c.41,0,.95-.26,1.21-.08C435.79,591.4,435.51,592.3,434.43,593.13Z" transform="translate(0 0.02)"/><path class="cls-1" d="M538.81,182.66c-4.87-.06-8.67-2.95-12.82-4.91v-.95c3.28.81,6.59,1.54,9.84,2.47C537.39,179.73,538.79,180.65,538.81,182.66Z" transform="translate(0 0.02)"/><path class="cls-1" d="M429.52,182.59c-3.3,2.29-7.1,2-10.82,2.08a6.11,6.11,0,0,0-.05-.95C422.19,182.55,425.76,181.66,429.52,182.59Z" transform="translate(0 0.02)"/><path class="cls-1" d="M418.65,183.72a6,6,0,0,0,.05.95c-.71,3.16-3.23,1.53-5,1.89.07-.9.13-1.8.2-2.7Z" transform="translate(0 0.02)"/><path class="cls-1" d="M477.82,176.89c-1.56,3.44-4.67,1.13-6.95,1.87l-1-.06C472.07,176.17,475.07,176.81,477.82,176.89Z" transform="translate(0 0.02)"/><path class="cls-1" d="M403.07,185.74l-3-.13c1.48-3.41,3.72-2.06,5.92-.94v1Z" transform="translate(0 0.02)"/><path class="cls-1" d="M440.47,180.82l-.15,1.8-4.89.11v-.34C436.4,179.6,438.7,181.06,440.47,180.82Z" transform="translate(0 0.02)"/><path class="cls-1" d="M457.23,178.91c-.69,2.37-2.54,1.72-4.18,1.61C453.72,178.09,455.61,178.85,457.23,178.91Z" transform="translate(0 0.02)"/><path class="cls-1" d="M413.91,183.86c-.07.9-.13,1.8-.2,2.7h-1.89c-.34-.62-.67-1.25-1-1.87C411.6,183.47,412.76,183.68,413.91,183.86Z" transform="translate(0 0.02)"/><path class="cls-1" d="M405.91,185.68v-1l3,.08C408.42,186.69,407.47,187.19,405.91,185.68Z" transform="translate(0 0.02)"/><path class="cls-1" d="M447.24,180.63c-.6,1-1.25,1.09-2,.1C445.89,179.75,446.54,179.68,447.24,180.63Z" transform="translate(0 0.02)"/><path class="cls-1" d="M435.43,182.73l4.89-.11c1.41,1.7,3.35.95,5.07,1a4.07,4.07,0,0,1,4,2.27,4.79,4.79,0,0,0,1.68,2.33c2.24,1.13,5.23,1.2,5.65,4.55a47.16,47.16,0,0,1-.12,13.63c-1.07,6.43-5.73,9.82-11.06,11.14-3.36.83-7.57-1.1-10.74-3.58-1.8-1.4-3.53-2.89-5.27-4.35-6-5-4.64-17.33,2.44-20.23C435.27,188,435.72,185.71,435.43,182.73Z" transform="translate(0 0.02)"/><path class="cls-1" d="M253.19,574.55l1.41.1a.85.85,0,0,1-1.19.15A.88.88,0,0,1,253.19,574.55Z" transform="translate(0 0.02)"/><path class="cls-1" d="M374,293.67s79.69-30.4,126-28.65c0,0,43.39-3.58,77.86,22.33l-21.79.22-77-12.23Z" transform="translate(0 0.02)"/><path class="cls-1" d="M402.16,140.16s20.53,12.87,34-.58l16.89-19s9.5-10.39,18.93-3,22.91,17.53,25.34,17.34V129.1L468,112.67l-11.74.59s-7.39,6.14-7,6.44-18,21.1-18,21.1H416.58l-14.42-.94" transform="translate(0 0.02)"/><path class="cls-1" d="M546.22,137.13" transform="translate(0 0.02)"/></svg>